2015032_C4_03_grf
version=1
nRows=21
nColumns=19
inDegrees=no
endheader
time	ground_force_1_vx	ground_force_1_vy	ground_force_1_vz	ground_force_1_px	ground_force_1_py	ground_force_1_pz	ground_force_1_mx	ground_force_1_my	ground_force_1_mz	ground_force_2_vx	ground_force_2_vy	ground_force_2_vz	ground_force_2_px	ground_force_2_py	ground_force_2_pz	ground_force_2_mx	ground_force_2_my	ground_force_2_mz
      1.01500000	      0.00000000	      0.00000000	      0.00000000	      0.00000000	      0.00000000	      0.00000000	      0.00000000	      0.00000000	      0.00000000	    -17.94142742	    467.45415777	      8.00556969	      0.65532948	      0.00000000	     -0.26188926	      0.00000000	      1.13305152	      0.00000000
      1.01600000	      0.00000000	      0.00000000	      0.00000000	      0.00000000	      0.00000000	      0.00000000	      0.00000000	      0.00000000	      0.00000000	    -17.74432510	    466.59851074	      8.00729301	      0.65566637	      0.00000000	     -0.26200705	      0.00000000	      1.12668233	      0.00000000
      1.01700000	      0.00000000	      0.00000000	      0.00000000	      0.00000000	      0.00000000	      0.00000000	      0.00000000	      0.00000000	      0.00000000	    -17.55075064	    465.76072276	      8.01275577	      0.65600636	      0.00000000	     -0.26212600	      0.00000000	      1.12017406	      0.00000000
      1.01800000	      0.00000000	      0.00000000	      0.00000000	      0.00000000	      0.00000000	      0.00000000	      0.00000000	      0.00000000	      0.00000000	    -17.35996827	    464.93786573	      8.02102983	      0.65634870	      0.00000000	     -0.26224580	      0.00000000	      1.11356148	      0.00000000
      1.01900000	      0.00000000	      0.00000000	      0.00000000	      0.00000000	      0.00000000	      0.00000000	      0.00000000	      0.00000000	      0.00000000	    -17.17262529	    464.13418651	      8.03257953	      0.65669371	      0.00000000	     -0.26236656	      0.00000000	      1.10682676	      0.00000000
      1.02000000	      0.00000000	      0.00000000	      0.00000000	      0.00000000	      0.00000000	      0.00000000	      0.00000000	      0.00000000	      0.00000000	    -16.98798500	    463.34637702	      8.04655161	      0.65704068	      0.00000000	     -0.26248799	      0.00000000	      1.10000094	      0.00000000
      1.02100000	      0.00000000	      0.00000000	      0.00000000	      0.00000000	      0.00000000	      0.00000000	      0.00000000	      0.00000000	      0.00000000	    -16.80666208	    462.57899702	      8.06330284	      0.65738985	      0.00000000	     -0.26261015	      0.00000000	      1.09306677	      0.00000000
      1.02200000	      0.00000000	      0.00000000	      0.00000000	      0.00000000	      0.00000000	      0.00000000	      0.00000000	      0.00000000	      0.00000000	    -16.62793383	    461.82842553	      8.08207635	      0.65774056	      0.00000000	     -0.26273278	      0.00000000	      1.08604972	      0.00000000
      1.02300000	      0.00000000	      0.00000000	      0.00000000	      0.00000000	      0.00000000	      0.00000000	      0.00000000	      0.00000000	      0.00000000	    -16.45237394	    461.09937876	      8.10312442	      0.65809293	      0.00000000	     -0.26285589	      0.00000000	      1.07893129	      0.00000000
      1.02400000	      0.00000000	      0.00000000	      0.00000000	      0.00000000	      0.00000000	      0.00000000	      0.00000000	      0.00000000	      0.00000000	    -16.27927646	    460.38803458	      8.12578797	      0.65844644	      0.00000000	     -0.26297925	      0.00000000	      1.07173275	      0.00000000
      1.02500000	      0.00000000	      0.00000000	      0.00000000	      0.00000000	      0.00000000	      0.00000000	      0.00000000	      0.00000000	      0.00000000	    -16.10916667	    459.69935507	      8.15021200	      0.65880108	      0.00000000	     -0.26310278	      0.00000000	      1.06443418	      0.00000000
      1.02600000	      0.00000000	      0.00000000	      0.00000000	      0.00000000	      0.00000000	      0.00000000	      0.00000000	      0.00000000	      0.00000000	    -15.94136097	    459.02927220	      8.17583799	      0.65915644	      0.00000000	     -0.26322633	      0.00000000	      1.05705601	      0.00000000
      1.02700000	      0.00000000	      0.00000000	      0.00000000	      0.00000000	      0.00000000	      0.00000000	      0.00000000	      0.00000000	      0.00000000	    -15.77631570	    458.38294923	      8.20271093	      0.65951246	      0.00000000	     -0.26334973	      0.00000000	      1.04957852	      0.00000000
      1.02800000	      0.00000000	      0.00000000	      0.00000000	      0.00000000	      0.00000000	      0.00000000	      0.00000000	      0.00000000	      0.00000000	    -15.61338268	    457.75611699	      8.23037568	      0.65986884	      0.00000000	     -0.26347290	      0.00000000	      1.04202194	      0.00000000
      1.02900000	      0.00000000	      0.00000000	      0.00000000	      0.00000000	      0.00000000	      0.00000000	      0.00000000	      0.00000000	      0.00000000	    -15.45295538	    457.15402812	      8.25876938	      0.66022541	      0.00000000	     -0.26359566	      0.00000000	      1.03436622	      0.00000000
      1.03000000	      0.00000000	      0.00000000	      0.00000000	      0.00000000	      0.00000000	      0.00000000	      0.00000000	      0.00000000	      0.00000000	    -15.29442891	    456.57218993	      8.28753524	      0.66058198	      0.00000000	     -0.26371796	      0.00000000	      1.02663161	      0.00000000
      1.03100000	      0.00000000	      0.00000000	      0.00000000	      0.00000000	      0.00000000	      0.00000000	      0.00000000	      0.00000000	      0.00000000	    -15.13814507	    456.01603389	      8.31650281	      0.66093833	      0.00000000	     -0.26383955	      0.00000000	      1.01879747	      0.00000000
      1.03200000	      0.00000000	      0.00000000	      0.00000000	      0.00000000	      0.00000000	      0.00000000	      0.00000000	      0.00000000	      0.00000000	    -14.98354971	    455.48079908	      8.34542401	      0.66129435	      0.00000000	     -0.26396046	      0.00000000	      1.01088285	      0.00000000
      1.03300000	      0.00000000	      0.00000000	      0.00000000	      0.00000000	      0.00000000	      0.00000000	      0.00000000	      0.00000000	      0.00000000	    -14.83092457	    454.97211814	      8.37402586	      0.66164976	      0.00000000	     -0.26408038	     -0.00000000	      1.00286770	      0.00000000
      1.03400000	      0.00000000	      0.00000000	      0.00000000	      0.00000000	      0.00000000	      0.00000000	      0.00000000	      0.00000000	      0.00000000	    -14.67976067	    454.48493958	      8.40216503	      0.66200455	      0.00000000	     -0.26419940	      0.00000000	      0.99477321	      0.00000000
      1.03500000	      0.00000000	      0.00000000	      0.00000000	      0.00000000	      0.00000000	      0.00000000	      0.00000000	      0.00000000	      0.00000000	    -14.53027409	    454.02485132	      8.42947187	      0.66235833	      0.00000000	     -0.26431717	     -0.00000000	      0.98658123	      0.00000000
